<svg xmlns="http://www.w3.org/2000/svg" viewBox="0 0 1400 998" width="1400" height="998"><g fill="#E5E5E5"><path d="M988 375l309-278-282-27zM293 329l39-44 90 114zM140-357l71 490 345-148zM-25 438l236-305 82 196zM695 180l-151 252 444-57zM1375 438l236-305 82 196zM988 375l95 246 144-12zM773 646l215-271-58 258zM449 653l19 68 76-289zM401 483l48 170 95-221zM464 907l92 76 217-337zM1227 609l96-179 52 8zM140 641l71 490 345-148z"/></g><g fill="#E6E6E6"><path d="M1015 70l-325-99 138-254zM-25 438l-78-341 314 36zM422 399l273-219-151 252zM293 329l39-44-121-152zM1375 438l-78-341 314 36zM1015 1068l-325-99 138-254zM556 983l134-14 83-323zM773 646l30-163 185-108z"/></g><g fill="#E7E7E7"><path d="M-103 97l314 36-71-490zM828-283l187 353 212-459zM211 133l211 266 273-219zM1297 97l314 36-71-490zM544 432l444-57-185 108zM139.5 641l328.5 80-4 186zM-103 1095l314 36-71-490zM828 715l187 353 212-459zM140 641l282-242-21 84zM988 375l335 55-96 179zM1297 1095l314 36-71-490z"/></g><g fill="#E0E0E0"><path d="M695 180l-139-195 134-14zM695 1178l-139-195 134-14zM-173 609l213-137 100 169zM464 907l4-186 305-75zM1227 609l213-137 100 169z"/></g><g fill="#E9E9E9"><path d="M988 375l-293-195 320-110zM1227-389l313 32-243 454-282-27zM-173 609l313 32-243 454-282-27zM468 721l-328-80 261-158zM401 483l21-84 122 33zM773 646l-83 323 138-254zM1227 609l313 32-243 454-282-27z"/></g><g fill="#E2E2E2"><path d="M695 180l-267-140 128-55zM211 133l217-93 267 140zM1297 97l-309 278 387 63zM695 180l-5-209 325 99zM930 633l153-12-95-246zM468 721l305-75-229-214zM695 1178l-267-140 128-55zM544 432l259 51-30 163zM40 472l253-143-153 312zM-25 438l65 34 253-143zM-25 438l65 34-213 137zM293 329l129 70-282 242zM695 1178l-5-209 325 99zM1375 438l65 34 253-143zM1375 438l65 34-213 137zM773 646l55 69 399-106z"/></g><g stroke="#D0D0D0" fill="none"><path d="M1297 97l78 341 236-305 82 196-318 109 65 34-213 137 148-171-387-63 309-278 314 36-71.5-490-242.5 454-282-27 212-459-399 106 187 353-325-99 5 209 320-110-27 305-293-195-139-195-345 148M428 40l267 140-484-47-71.5-490-242.5 454 314 36-236 305 318-109-82-196 211 266 273-219-151 252 444-57-185 108M332 285l-39 44-253 143.1-65-34.1-148 171 213-136.9 100 168.9-313-32-212 459 282 27 243-454 71 490 345-148-92-76-324-266 328 80-4 186 309-260.7-217 336.7 134-13.5M556 983l139 195-5-208.5 325 98.5-187-353 399-106-212 459 282 27 243-454-313-32 96-179M1083 621l-95-246 239 234-144 12-153 12-157 13.3 215-271.3-58 258M773 646.3l55 68.7-138 254.5 83-323.2 30-163.3-259-51 229 214.3-305 74.7 76-289-95 220M468 721l-67-238 143-51-122-33-21 84-261 158 282-242-129-70-153 312"/></g></svg>