<?xml version="1.0" encoding="utf-8"?>
<svg viewBox="29.911 51.995 421.604 125" xmlns="http://www.w3.org/2000/svg">
  <path d="M 190.925 120.759 C 185.105 120.759 180.515 119.529 177.155 117.069 C 173.855 114.549 172.205 111.069 172.205 106.629 L 172.205 104.739 C 172.205 104.139 172.505 103.839 173.105 103.839 L 177.515 103.839 C 178.115 103.839 178.415 104.139 178.415 104.739 L 178.415 106.089 C 178.415 108.789 179.555 110.979 181.835 112.659 C 184.115 114.339 187.325 115.179 191.465 115.179 C 195.185 115.179 198.035 114.429 200.015 112.929 C 201.995 111.429 202.985 109.389 202.985 106.809 C 202.985 104.589 201.995 102.729 200.015 101.229 C 198.035 99.729 194.615 98.019 189.755 96.099 C 185.615 94.659 182.465 93.429 180.305 92.409 C 178.205 91.389 176.465 90.009 175.085 88.269 C 173.705 86.469 173.015 84.159 173.015 81.339 C 173.015 76.959 174.545 73.569 177.605 71.169 C 180.665 68.769 184.985 67.569 190.565 67.569 C 196.385 67.569 200.885 68.889 204.065 71.529 C 207.305 74.109 208.925 77.649 208.925 82.149 L 208.925 83.319 C 208.925 83.919 208.625 84.219 208.025 84.219 L 203.525 84.219 C 202.925 84.219 202.625 83.919 202.625 83.319 L 202.625 82.419 C 202.625 79.719 201.545 77.529 199.385 75.849 C 197.285 74.109 194.225 73.239 190.205 73.239 C 186.725 73.239 184.025 73.929 182.105 75.309 C 180.245 76.629 179.315 78.579 179.315 81.159 C 179.315 82.779 179.735 84.129 180.575 85.209 C 181.475 86.229 182.645 87.099 184.085 87.819 C 185.585 88.479 188.045 89.469 191.465 90.789 C 195.605 92.229 198.875 93.549 201.275 94.749 C 203.675 95.949 205.625 97.509 207.125 99.429 C 208.685 101.289 209.465 103.659 209.465 106.539 C 209.465 110.919 207.845 114.399 204.605 116.979 C 201.365 119.499 196.805 120.759 190.925 120.759 Z" fill="#20C5F5"/>
  <path d="M 257.967 68.199 C 258.567 68.199 258.867 68.499 258.867 69.099 L 258.867 72.969 C 258.867 73.569 258.567 73.869 257.967 73.869 L 243.027 73.869 C 242.787 73.869 242.667 73.989 242.667 74.229 L 242.667 119.229 C 242.667 119.829 242.367 120.129 241.767 120.129 L 237.177 120.129 C 236.577 120.129 236.277 119.829 236.277 119.229 L 236.277 74.229 C 236.277 73.989 236.157 73.869 235.917 73.869 L 221.427 73.869 C 220.827 73.869 220.527 73.569 220.527 72.969 L 220.527 69.099 C 220.527 68.499 220.827 68.199 221.427 68.199 L 257.967 68.199 Z" fill="#20C5F5"/>
  <path d="M 303.337 120.129 C 302.797 120.129 302.437 119.919 302.257 119.499 L 291.277 97.449 C 291.217 97.269 291.097 97.179 290.917 97.179 L 279.217 97.179 C 278.977 97.179 278.857 97.299 278.857 97.539 L 278.857 119.229 C 278.857 119.829 278.557 120.129 277.957 120.129 L 273.367 120.129 C 272.767 120.129 272.467 119.829 272.467 119.229 L 272.467 69.009 C 272.467 68.409 272.767 68.109 273.367 68.109 L 293.257 68.109 C 297.817 68.109 301.477 69.459 304.237 72.159 C 306.997 74.859 308.377 78.399 308.377 82.779 C 308.377 86.319 307.417 89.319 305.497 91.779 C 303.577 94.239 300.997 95.859 297.757 96.639 C 297.457 96.759 297.367 96.909 297.487 97.089 L 308.827 119.049 C 308.887 119.169 308.917 119.319 308.917 119.499 C 308.917 119.919 308.677 120.129 308.197 120.129 L 303.337 120.129 Z M 279.217 73.689 C 278.977 73.689 278.857 73.809 278.857 74.049 L 278.857 91.689 C 278.857 91.929 278.977 92.049 279.217 92.049 L 292.627 92.049 C 295.447 92.049 297.727 91.209 299.467 89.529 C 301.207 87.849 302.077 85.659 302.077 82.959 C 302.077 80.199 301.207 77.979 299.467 76.299 C 297.727 74.559 295.447 73.689 292.627 73.689 L 279.217 73.689 Z" fill="#20C5F5"/>
  <path d="M 329.125 120.129 C 328.525 120.129 328.225 119.829 328.225 119.229 L 328.225 69.189 C 328.225 68.589 328.525 68.289 329.125 68.289 L 333.715 68.289 C 334.315 68.289 334.615 68.589 334.615 69.189 L 334.615 119.229 C 334.615 119.829 334.315 120.129 333.715 120.129 L 329.125 120.129 Z" fill="#20C5F5"/>
  <path d="M 358.164 120.129 C 357.564 120.129 357.264 119.829 357.264 119.229 L 357.264 69.099 C 357.264 68.499 357.564 68.199 358.164 68.199 L 376.434 68.199 C 381.594 68.199 385.734 69.549 388.854 72.249 C 391.974 74.889 393.534 78.429 393.534 82.869 L 393.534 105.459 C 393.534 109.959 391.974 113.529 388.854 116.169 C 385.794 118.809 381.654 120.129 376.434 120.129 L 358.164 120.129 Z M 363.654 114.189 C 363.654 114.429 363.774 114.549 364.014 114.549 L 376.704 114.549 C 379.884 114.549 382.404 113.649 384.264 111.849 C 386.184 110.049 387.144 107.649 387.144 104.649 L 387.144 83.769 C 387.144 80.709 386.184 78.309 384.264 76.569 C 382.404 74.769 379.884 73.869 376.704 73.869 L 364.014 73.869 C 363.774 73.869 363.654 73.989 363.654 74.229 L 363.654 114.189 Z" fill="#20C5F5"/>
  <path d="M 448.281 72.969 C 448.281 73.569 447.981 73.869 447.381 73.869 L 419.751 73.869 C 419.511 73.869 419.391 73.989 419.391 74.229 L 419.391 90.879 C 419.391 91.119 419.511 91.239 419.751 91.239 L 438.921 91.239 C 439.521 91.239 439.821 91.539 439.821 92.139 L 439.821 95.919 C 439.821 96.519 439.521 96.819 438.921 96.819 L 419.751 96.819 C 419.511 96.819 419.391 96.939 419.391 97.179 L 419.391 114.189 C 419.391 114.429 419.511 114.549 419.751 114.549 L 447.381 114.549 C 447.981 114.549 448.281 114.849 448.281 115.449 L 448.281 119.229 C 448.281 119.829 447.981 120.129 447.381 120.129 L 413.901 120.129 C 413.301 120.129 413.001 119.829 413.001 119.229 L 413.001 69.189 C 413.001 68.589 413.301 68.289 413.901 68.289 L 447.381 68.289 C 447.981 68.289 448.281 68.589 448.281 69.189 L 448.281 72.969 Z" fill="#20C5F5"/>
  <path d="M 33.322 82.499 L 85.115 51.995 L 134.8 81.16 L 83.003 111.661 L 33.322 82.499 Z" fill="#20C5F5"/>
  <path d="M 31.095 112.935 L 31.095 86.36 L 80.833 115.557 L 80.833 142.131 L 31.095 112.935 Z" fill="#20C5F5"/>
  <path d="M 85.172 142.131 L 85.172 115.557 L 110.041 100.958 L 132.677 114.246 L 85.172 142.131 Z" fill="#20C5F5"/>
  <path d="M 134.911 142.131 L 114.444 130.117 L 134.911 118.103 L 134.911 142.131 Z" fill="#20C5F5"/>
  <path d="M 82.875 176.995 L 29.911 146.085 L 54.958 131.951 L 83.003 148.573 L 110.039 132.703 L 134.3 146.76 L 82.875 176.995 Z" fill="#20C5F5"/>
  <text style="fill: rgb(32, 197, 245); font-family: Arial, sans-serif; font-size: 34px; white-space: pre;" x="174.383" y="159.431">Community Toolkit</text>
</svg>